<?xml version="1.0" encoding="iso-8859-1"?>
<!-- Generator: Adobe Illustrator 19.0.0, SVG Export Plug-In . SVG Version: 6.00 Build 0)  -->
<svg xmlns="http://www.w3.org/2000/svg" xmlns:xlink="http://www.w3.org/1999/xlink" version="1.1" id="Layer_1" x="0px" y="0px" viewBox="0 0 512 1082" xml:space="preserve" width="512px" height="1082px">
<g transform="translate(1 570)">
	<g>
		<g>
			<path d="M506.054,313.027c-15.36-20.48-30.72-20.48-68.267-0.853L364.4,357.4c-10.24,5.973-33.28,7.68-54.613,7.68     c4.267-7.68,2.56-17.067-5.12-28.16c-13.653-19.627-36.693-31.573-61.44-31.573h-33.28c-17.92,0-34.987-5.12-48.64-15.36     c-30.791-23.093-78.94,2.035-102.4,17.023v-17.876H-0.826V511h59.733v-25.6H169.84c17.067,0,34.987-1.707,52.053-2.56     l110.933-17.067c4.267,0,8.533-0.853,11.947-1.707c10.24-1.707,19.627-6.827,28.16-14.507l128.853-102.4     C512.027,338.627,513.734,323.267,506.054,313.027z M41.84,493.933h-25.6V306.2h25.6V319v166.4V493.933z M491.547,335.213     L361.84,435.907l-0.853,0.853c-5.12,5.973-11.947,9.387-19.627,10.24c-3.413,0.853-5.973,0.853-9.387,0.853l-112.64,17.067     c-16.213,2.56-33.28,3.413-49.493,3.413H58.907v-140.8c20.48-14.507,68.267-41.813,92.16-23.04     c16.213,11.947,36.693,18.773,58.88,18.773h33.28c19.627,0,37.547,8.533,48.64,24.747c3.413,5.12,4.267,10.24,3.413,11.947     c-2.56,4.267-12.8,5.973-23.893,6.827c-2.139,0-4.277,0-6.205,0c-1.169-0.55-2.525-0.853-4.035-0.853h-82.773     c-26.453,0-42.667,12.8-42.667,34.133c0,5.12,3.413,8.533,8.533,8.533c5.12,0,8.533-3.413,8.533-8.533     c0-4.267,0-17.067,25.6-17.067h82.773c0.015,0,0.028-0.002,0.043-0.002l-0.043,0.855c2.56,0,5.973,0,11.093,0     c0.853,0,2.56,0,4.267,0c40.107,0.853,77.653,0,97.28-10.24l73.387-45.227c35.84-17.92,39.253-13.653,46.08-3.413     C494.96,327.533,494.96,332.653,491.547,335.213z" fill="#9e9e9e"/>
			<path d="M157.894,191.853l109.227,93.013c1.707,1.707,4.267,2.56,6.827,2.56s5.12-0.853,6.827-2.56L389.147,191     c23.04-19.627,39.253-45.227,46.08-72.533c4.267-18.773,3.413-30.72,2.56-33.28C433.52,35.693,393.414-1,345.627-1     C314.054-1,287.6,20.333,272.24,44.227C256.88,20.333,229.574-1,198-1c-47.787,0-83.627,35.84-88.747,87.04     c-0.853,2.56-2.56,14.507,2.56,33.28C118.64,146.627,134.854,172.227,157.894,191.853z M126.32,87.747v-0.853     C130.587,45.08,159.6,16.067,198,16.067c29.867,0,54.613,24.747,65.707,49.493l7.68,17.92l7.68-17.92     c11.093-24.747,35.84-49.493,66.56-49.493c39.253,0,71.68,30.72,74.24,71.68c0,0,1.707,9.387-2.56,26.453     c-5.973,23.893-19.627,46.08-40.107,64l-104.107,89.6l-104.107-89.6c-20.48-17.92-34.133-40.107-40.107-64     C124.614,97.133,126.32,87.747,126.32,87.747z" fill="#9e9e9e"/>
		</g>
	</g>
</g>
	<path style="fill:#FDC794;" d="M505.884,346.041c7.062-5.297,7.945-15.89,2.648-22.952c-11.476-15.007-20.303-19.421-58.262,0.883
	l-76.8,46.786c-23.834,12.359-84.745,8.828-111.228,8.828c0,0,62.676,4.414,37.959-32.662
	c-12.359-18.538-33.545-29.131-56.497-29.131h-34.428c-20.303,0-39.724-6.179-55.614-17.655
	c-37.959-29.131-109.462,26.483-109.462,26.483v158.897h123.586c17.655,0,35.31-1.766,52.966-4.414l114.759-17.655
	c3.531,0,7.945-0.883,11.476-0.883l0,0c9.71-0.883,17.655-6.179,24.717-12.359L505.884,346.041z"/>
<polygon style="fill:#48A0DC;" points="0.063,512 44.201,512 44.201,300.138 0.063,300.138 "/>
<path style="fill:#E64C3C;" d="M272.835,56.497C286.077,27.366,315.208,0,349.635,0c46.786,0,82.097,36.193,86.51,81.214
	c0,0,2.648,11.476-2.648,31.779c-7.062,27.366-22.952,52.083-45.021,70.621l-111.228,96.221c-0.883,0.883-2.648,0.883-3.531,0
	l-112.11-96.221c-22.069-18.538-37.959-43.255-45.021-70.621c-5.297-20.303-2.648-31.779-2.648-31.779
	C118.353,36.193,150.132,0,196.918,0C231.346,0,260.477,27.366,272.835,56.497"/>
<g>
	<path style="fill:#F9A671;" d="M262.242,388.414h-85.628c-5.297,0-8.828-3.531-8.828-8.828s3.531-8.828,8.828-8.828h85.628
		c5.297,0,8.828,3.531,8.828,8.828S267.539,388.414,262.242,388.414z"/>
	<path style="fill:#F9A671;" d="M141.304,414.897c-5.297,0-8.828-3.531-8.828-8.828c0-22.069,16.772-35.31,44.138-35.31
		c5.297,0,8.828,3.531,8.828,8.828s-3.531,8.828-8.828,8.828c-26.483,0-26.483,13.241-26.483,17.655
		C150.132,411.366,146.601,414.897,141.304,414.897z"/>
</g>
</svg>
